<?xml version="1.0" encoding="UTF-8"?>
<svg id="Layer_1" data-name="Layer 1" xmlns="http://www.w3.org/2000/svg" viewBox="0 0 262.78 94.24">
  <rect x="9.86" y="55.03" width="7.18" height="23.69"/>
  <rect x="82.66" y="55.03" width="7.18" height="23.69"/>
  <rect x="242.98" y="55.18" width="7.18" height="23.69"/>
  <rect x="46.26" y="49.51" width="7.18" height="65.62" transform="translate(132.17 32.46) rotate(90)"/>
  <rect x="162.82" y="5.75" width="7.18" height="153.13" transform="translate(248.73 -84.1) rotate(90)"/>
  <path d="M31.8,60.22l31.45-22.46h-31.45v-5.4h33.88v10.95l-31.45,22.38h31.45v5.56H31.8v-11.03ZM39.7,13.12l9.08,7.36,9-7.36,3.99,3.84-12.99,10.4-13.07-10.4,3.99-3.84Z"/>
  <g>
    <path d="M107.61,65.35h10.75V20.27h-8.04v-5.87h10.9c2.55,0,4.02,1.31,4.02,3.87v47.09h10.75v5.88h-28.38v-5.88Z"/>
    <path d="M154.72,49.35l15.08-1.47c-.31-6.96-3.4-10.28-10.36-10.28-5.34,0-9.28,2.47-9.9,8.89h-6.81c.85-8.74,6.81-14.46,16.86-14.46,11.13,0,17.09,6.88,17.09,17.24v16.08h5.64v5.88h-7.04c-2.94,0-4.64-1.7-4.64-4.64v-4.87c-1.78,5.41-6.26,10.28-15.77,10.28-11.29,0-12.99-7.42-12.99-11.45,0-6.11,3.71-10.36,12.84-11.21ZM155.95,66.36c8.35,0,13.84-5.88,13.84-13.61l-13.92,1.47c-4.72.47-7.19,1.78-7.19,5.49,0,4.41,2.86,6.65,7.27,6.65Z"/>
    <path d="M189.54,14.4h6.88v27.68c2.55-5.8,7.96-10.05,16.47-10.05,11.06,0,18.02,8.27,18.02,19.95s-6.96,20.03-18.02,20.03c-8.27,0-13.76-4.1-16.47-10.21v9.43h-6.88V14.4ZM210.65,66.12c7.5,0,13.45-4.49,13.45-14.15s-5.96-14.07-13.45-14.07-14.07,4.72-14.07,14.07,6.57,14.15,14.07,14.15Z"/>
  </g>
</svg>